<svg xmlns="http://www.w3.org/2000/svg" xmlns:xlink="http://www.w3.org/1999/xlink" xmlns:lucid="lucid" width="621" height="382"><g transform="translate(-159 -79)" lucid:page-tab-id="Kjb-Y4FDx7pE"><path d="M0 0h1760v1360H0z" fill="#fff"/><path d="M320 278.73h94.67v52.67H320z" fill="none"/><use xlink:href="#a" transform="matrix(1,0,0,1,320,278.73333333333335) translate(9.549999999999997 30.1)"/><path d="M160 80h280v40H160z" stroke="#000" stroke-width="2" fill="#c7e8ac"/><use xlink:href="#b" transform="matrix(1,0,0,1,172,92) translate(26.69999999999999 14.4)"/><use xlink:href="#c" transform="matrix(1,0,0,1,172,92) translate(72.54999999999998 14.4)"/><use xlink:href="#d" transform="matrix(1,0,0,1,172,92) translate(152.4 14.4)"/><path d="M160 220h280v40H160z" stroke="#000" stroke-width="2" fill="#c7e8ac"/><use xlink:href="#e" transform="matrix(1,0,0,1,172,232) translate(90.07499999999999 14.4)"/><path d="M160 340h280v120H160z" stroke="#000" stroke-width="2" fill="#c7e8ac"/><use xlink:href="#f" transform="matrix(1,0,0,1,172,352) translate(6.299999999999983 20.4)"/><use xlink:href="#g" transform="matrix(1,0,0,1,172,352) translate(99.1 20.4)"/><use xlink:href="#h" transform="matrix(1,0,0,1,172,352) translate(41.099999999999994 42)"/><use xlink:href="#i" transform="matrix(1,0,0,1,172,352) translate(61.05 63.6)"/><use xlink:href="#j" transform="matrix(1,0,0,1,172,352) translate(152 63.6)"/><use xlink:href="#k" transform="matrix(1,0,0,1,172,352) translate(16.924999999999997 85.20000000000002)"/><use xlink:href="#l" transform="matrix(1,0,0,1,172,352) translate(200.075 85.20000000000002)"/><path d="M300 338v-58.5" stroke="#000" stroke-width="2" fill="none"/><path d="M301 339h-2v-1.03h2z" stroke="#000" stroke-width=".05"/><path d="M300 264.24l4.64 14.26h-9.28z" stroke="#000" stroke-width="2"/><path d="M300 218v-78.5" stroke="#000" stroke-width="2" fill="none"/><path d="M301 219h-2v-1.03h2z" stroke="#000" stroke-width=".05"/><path d="M300 124.24l4.64 14.26h-9.28z" stroke="#000" stroke-width="2"/><path d="M520 98.67h240V224H520z" fill="none"/><path d="M520 224c5.52 0 10-4.48 10-10v-42.67c0-5.52 4.48-10 10-10-5.52 0-10-4.47-10-10v-42.66c0-5.53-4.48-10-10-10" stroke="#000" stroke-width="2" fill="none"/><g><use xlink:href="#m" transform="matrix(1,0,0,1,555,103.66666666666666) translate(0 40)"/><use xlink:href="#n" transform="matrix(1,0,0,1,555,103.66666666666666) translate(79.85000000000001 40)"/><use xlink:href="#o" transform="matrix(1,0,0,1,555,103.66666666666666) translate(0 61.6)"/><use xlink:href="#p" transform="matrix(1,0,0,1,555,103.66666666666666) translate(88.9 61.6)"/><use xlink:href="#q" transform="matrix(1,0,0,1,555,103.66666666666666) translate(0 83.20000000000002)"/></g><path d="M520 260h260v145.33H520z" fill="none"/><path d="M520 405.33c5.52 0 10-4.47 10-10v-52.66c0-5.53 4.48-10 10-10-5.52 0-10-4.48-10-10V270c0-5.52-4.48-10-10-10" stroke="#000" stroke-width="2" fill="none"/><g><use xlink:href="#r" transform="matrix(1,0,0,1,555,265) translate(0 50)"/><use xlink:href="#s" transform="matrix(1,0,0,1,555,265) translate(80.85000000000001 50)"/><use xlink:href="#t" transform="matrix(1,0,0,1,555,265) translate(0 71.60000000000001)"/><use xlink:href="#u" transform="matrix(1,0,0,1,555,265) translate(79.9 71.60000000000001)"/><use xlink:href="#v" transform="matrix(1,0,0,1,555,265) translate(163.8 71.60000000000001)"/><use xlink:href="#w" transform="matrix(1,0,0,1,555,265) translate(0 93.20000000000002)"/><use xlink:href="#x" transform="matrix(1,0,0,1,555,265) translate(80.9 93.20000000000002)"/></g><path d="M320 154.2h180V180H320z" fill="#fff" fill-opacity="0"/><g><use xlink:href="#y" transform="matrix(1,0,0,1,325,159.2) translate(0 14.4)"/></g><defs><path d="M114-163C36-179 61-72 57 0H25l-1-190h30c1 12-1 29 2 39 6-27 23-49 58-41v29" id="z"/><path d="M100-194c63 0 86 42 84 106H49c0 40 14 67 53 68 26 1 43-12 49-29l28 8c-11 28-37 45-77 45C44 4 14-33 15-96c1-61 26-98 85-98zm52 81c6-60-76-77-97-28-3 7-6 17-6 28h103" id="A"/><path d="M101-234c-31-9-42 10-38 44h38v23H63V0H32v-167H5v-23h27c-7-52 17-82 69-68v24" id="B"/><path d="M117-194c89-4 53 116 60 194h-32v-121c0-31-8-49-39-48C34-167 62-67 57 0H25l-1-190h30c1 10-1 24 2 32 11-22 29-35 61-36" id="C"/><path d="M96-169c-40 0-48 33-48 73s9 75 48 75c24 0 41-14 43-38l32 2c-6 37-31 61-74 61-59 0-76-41-82-99-10-93 101-131 147-64 4 7 5 14 7 22l-32 3c-4-21-16-35-41-35" id="D"/><g id="a"><use transform="matrix(0.05,0,0,0.05,0,0)" xlink:href="#z"/><use transform="matrix(0.05,0,0,0.05,5.95,0)" xlink:href="#A"/><use transform="matrix(0.05,0,0,0.05,15.949999999999998,0)" xlink:href="#B"/><use transform="matrix(0.05,0,0,0.05,20.95,0)" xlink:href="#A"/><use transform="matrix(0.05,0,0,0.05,30.950000000000003,0)" xlink:href="#z"/><use transform="matrix(0.05,0,0,0.05,36.9,0)" xlink:href="#A"/><use transform="matrix(0.05,0,0,0.05,46.9,0)" xlink:href="#C"/><use transform="matrix(0.05,0,0,0.05,56.900000000000006,0)" xlink:href="#D"/><use transform="matrix(0.05,0,0,0.05,65.9,0)" xlink:href="#A"/></g><path d="M240 0l2-218c-23 76-54 145-80 218h-23L58-218 59 0H30v-248h44l77 211c21-75 51-140 76-211h43V0h-30" id="E"/><path d="M212-179c-10-28-35-45-73-45-59 0-87 40-87 99 0 60 29 101 89 101 43 0 62-24 78-52l27 14C228-24 195 4 139 4 59 4 22-46 18-125c-6-104 99-153 187-111 19 9 31 26 39 46" id="F"/><g id="b"><use transform="matrix(0.05,0,0,0.05,0,0)" xlink:href="#E"/><use transform="matrix(0.05,0,0,0.05,14.950000000000001,0)" xlink:href="#F"/><use transform="matrix(0.05,0,0,0.05,27.900000000000002,0)" xlink:href="#F"/></g><path d="M141-36C126-15 110 5 73 4 37 3 15-17 15-53c-1-64 63-63 125-63 3-35-9-54-41-54-24 1-41 7-42 31l-33-3c5-37 33-52 76-52 45 0 72 20 72 64v82c-1 20 7 32 28 27v20c-31 9-61-2-59-35zM48-53c0 20 12 33 32 33 41-3 63-29 60-74-43 2-92-5-92 41" id="G"/><path d="M30-248c87 1 191-15 191 75 0 78-77 80-158 76V0H30v-248zm33 125c57 0 124 11 124-50 0-59-68-47-124-48v98" id="H"/><path d="M24 0v-261h32V0H24" id="I"/><g id="c"><use transform="matrix(0.05,0,0,0.05,0,0)" xlink:href="#F"/><use transform="matrix(0.05,0,0,0.05,12.950000000000001,0)" xlink:href="#G"/><use transform="matrix(0.05,0,0,0.05,22.950000000000003,0)" xlink:href="#z"/><use transform="matrix(0.05,0,0,0.05,28.900000000000002,0)" xlink:href="#A"/><use transform="matrix(0.05,0,0,0.05,38.900000000000006,0)" xlink:href="#H"/><use transform="matrix(0.05,0,0,0.05,50.900000000000006,0)" xlink:href="#I"/><use transform="matrix(0.05,0,0,0.05,54.85,0)" xlink:href="#G"/><use transform="matrix(0.05,0,0,0.05,64.85000000000001,0)" xlink:href="#C"/></g><path d="M233-177c-1 41-23 64-60 70L243 0h-38l-65-103H63V0H30v-248c88 3 205-21 203 71zM63-129c60-2 137 13 137-47 0-61-80-42-137-45v92" id="J"/><path d="M135-143c-3-34-86-38-87 0 15 53 115 12 119 90S17 21 10-45l28-5c4 36 97 45 98 0-10-56-113-15-118-90-4-57 82-63 122-42 12 7 21 19 24 35" id="K"/><path d="M100-194c62-1 85 37 85 99 1 63-27 99-86 99S16-35 15-95c0-66 28-99 85-99zM99-20c44 1 53-31 53-75 0-43-8-75-51-75s-53 32-53 75 10 74 51 75" id="L"/><path d="M84 4C-5 8 30-112 23-190h32v120c0 31 7 50 39 49 72-2 45-101 50-169h31l1 190h-30c-1-10 1-25-2-33-11 22-28 36-60 37" id="M"/><g id="d"><use transform="matrix(0.05,0,0,0.05,0,0)" xlink:href="#J"/><use transform="matrix(0.05,0,0,0.05,12.950000000000001,0)" xlink:href="#A"/><use transform="matrix(0.05,0,0,0.05,22.950000000000003,0)" xlink:href="#K"/><use transform="matrix(0.05,0,0,0.05,31.950000000000003,0)" xlink:href="#L"/><use transform="matrix(0.05,0,0,0.05,41.95,0)" xlink:href="#M"/><use transform="matrix(0.05,0,0,0.05,51.95,0)" xlink:href="#z"/><use transform="matrix(0.05,0,0,0.05,57.900000000000006,0)" xlink:href="#D"/><use transform="matrix(0.05,0,0,0.05,66.9,0)" xlink:href="#A"/></g><path d="M85-194c31 0 48 13 60 33l-1-100h32l1 261h-30c-2-10 0-23-3-31C134-8 116 4 85 4 32 4 16-35 15-94c0-66 23-100 70-100zm9 24c-40 0-46 34-46 75 0 40 6 74 45 74 42 0 51-32 51-76 0-42-9-74-50-73" id="N"/><path d="M24-231v-30h32v30H24zM24 0v-190h32V0H24" id="O"/><path d="M59-47c-2 24 18 29 38 22v24C64 9 27 4 27-40v-127H5v-23h24l9-43h21v43h35v23H59v120" id="P"/><g id="e"><use transform="matrix(0.05,0,0,0.05,0,0)" xlink:href="#F"/><use transform="matrix(0.05,0,0,0.05,12.950000000000001,0)" xlink:href="#L"/><use transform="matrix(0.05,0,0,0.05,22.950000000000003,0)" xlink:href="#C"/><use transform="matrix(0.05,0,0,0.05,32.95,0)" xlink:href="#N"/><use transform="matrix(0.05,0,0,0.05,42.95,0)" xlink:href="#O"/><use transform="matrix(0.05,0,0,0.05,46.900000000000006,0)" xlink:href="#P"/><use transform="matrix(0.05,0,0,0.05,51.900000000000006,0)" xlink:href="#O"/><use transform="matrix(0.05,0,0,0.05,55.85,0)" xlink:href="#L"/><use transform="matrix(0.05,0,0,0.05,65.85000000000001,0)" xlink:href="#C"/></g><path d="M127-220V0H93v-220H8v-28h204v28h-85" id="Q"/><path d="M210-169c-67 3-38 105-44 169h-31v-121c0-29-5-50-35-48C34-165 62-65 56 0H25l-1-190h30c1 10-1 24 2 32 10-44 99-50 107 0 11-21 27-35 58-36 85-2 47 119 55 194h-31v-121c0-29-5-49-35-48" id="R"/><path d="M68-38c1 34 0 65-14 84H32c9-13 17-26 17-46H33v-38h35" id="S"/><g id="f"><use transform="matrix(0.05,0,0,0.05,0,0)" xlink:href="#F"/><use transform="matrix(0.05,0,0,0.05,12.950000000000001,0)" xlink:href="#G"/><use transform="matrix(0.05,0,0,0.05,22.950000000000003,0)" xlink:href="#z"/><use transform="matrix(0.05,0,0,0.05,28.900000000000002,0)" xlink:href="#A"/><use transform="matrix(0.05,0,0,0.05,38.900000000000006,0)" xlink:href="#Q"/><use transform="matrix(0.05,0,0,0.05,47.85000000000001,0)" xlink:href="#A"/><use transform="matrix(0.05,0,0,0.05,57.85,0)" xlink:href="#G"/><use transform="matrix(0.05,0,0,0.05,67.85000000000001,0)" xlink:href="#R"/><use transform="matrix(0.05,0,0,0.05,82.80000000000001,0)" xlink:href="#S"/></g><path d="M33 0v-248h34V0H33" id="T"/><path d="M115-194c55 1 70 41 70 98S169 2 115 4C84 4 66-9 55-30l1 105H24l-1-265h31l2 30c10-21 28-34 59-34zm-8 174c40 0 45-34 45-75s-6-73-45-74c-42 0-51 32-51 76 0 43 10 73 51 73" id="U"/><g id="g"><use transform="matrix(0.05,0,0,0.05,0,0)" xlink:href="#F"/><use transform="matrix(0.05,0,0,0.05,12.950000000000001,0)" xlink:href="#I"/><use transform="matrix(0.05,0,0,0.05,16.900000000000002,0)" xlink:href="#O"/><use transform="matrix(0.05,0,0,0.05,20.85,0)" xlink:href="#C"/><use transform="matrix(0.05,0,0,0.05,30.85,0)" xlink:href="#O"/><use transform="matrix(0.05,0,0,0.05,34.800000000000004,0)" xlink:href="#D"/><use transform="matrix(0.05,0,0,0.05,43.800000000000004,0)" xlink:href="#G"/><use transform="matrix(0.05,0,0,0.05,53.800000000000004,0)" xlink:href="#I"/><use transform="matrix(0.05,0,0,0.05,57.75,0)" xlink:href="#T"/><use transform="matrix(0.05,0,0,0.05,62.75,0)" xlink:href="#R"/><use transform="matrix(0.05,0,0,0.05,77.7,0)" xlink:href="#U"/><use transform="matrix(0.05,0,0,0.05,87.7,0)" xlink:href="#z"/><use transform="matrix(0.05,0,0,0.05,93.65,0)" xlink:href="#A"/><use transform="matrix(0.05,0,0,0.05,103.65,0)" xlink:href="#K"/><use transform="matrix(0.05,0,0,0.05,112.65,0)" xlink:href="#K"/><use transform="matrix(0.05,0,0,0.05,121.65,0)" xlink:href="#O"/><use transform="matrix(0.05,0,0,0.05,125.60000000000001,0)" xlink:href="#L"/><use transform="matrix(0.05,0,0,0.05,135.60000000000002,0)" xlink:href="#C"/><use transform="matrix(0.05,0,0,0.05,145.60000000000002,0)" xlink:href="#S"/></g><path d="M30-248c118-7 216 8 213 122C240-48 200 0 122 0H30v-248zM63-27c89 8 146-16 146-99s-60-101-146-95v194" id="V"/><path d="M108 0H70L1-190h34L89-25l56-165h34" id="W"/><path d="M232-93c-1 65-40 97-104 97C67 4 28-28 28-90v-158h33c8 89-33 224 67 224 102 0 64-133 71-224h33v155" id="X"/><path d="M185-189c-5-48-123-54-124 2 14 75 158 14 163 119 3 78-121 87-175 55-17-10-28-26-33-46l33-7c5 56 141 63 141-1 0-78-155-14-162-118-5-82 145-84 179-34 5 7 8 16 11 25" id="Y"/><g id="h"><use transform="matrix(0.05,0,0,0.05,0,0)" xlink:href="#V"/><use transform="matrix(0.05,0,0,0.05,12.950000000000001,0)" xlink:href="#A"/><use transform="matrix(0.05,0,0,0.05,22.950000000000003,0)" xlink:href="#W"/><use transform="matrix(0.05,0,0,0.05,31.950000000000003,0)" xlink:href="#O"/><use transform="matrix(0.05,0,0,0.05,35.900000000000006,0)" xlink:href="#D"/><use transform="matrix(0.05,0,0,0.05,44.900000000000006,0)" xlink:href="#A"/><use transform="matrix(0.05,0,0,0.05,54.900000000000006,0)" xlink:href="#X"/><use transform="matrix(0.05,0,0,0.05,67.85000000000001,0)" xlink:href="#K"/><use transform="matrix(0.05,0,0,0.05,76.85000000000001,0)" xlink:href="#A"/><use transform="matrix(0.05,0,0,0.05,86.85000000000001,0)" xlink:href="#Y"/><use transform="matrix(0.05,0,0,0.05,98.85000000000001,0)" xlink:href="#P"/><use transform="matrix(0.05,0,0,0.05,103.85000000000001,0)" xlink:href="#G"/><use transform="matrix(0.05,0,0,0.05,113.85000000000001,0)" xlink:href="#P"/><use transform="matrix(0.05,0,0,0.05,118.85000000000001,0)" xlink:href="#A"/><use transform="matrix(0.05,0,0,0.05,128.85000000000002,0)" xlink:href="#R"/><use transform="matrix(0.05,0,0,0.05,143.8,0)" xlink:href="#A"/><use transform="matrix(0.05,0,0,0.05,153.8,0)" xlink:href="#C"/><use transform="matrix(0.05,0,0,0.05,163.8,0)" xlink:href="#P"/><use transform="matrix(0.05,0,0,0.05,168.8,0)" xlink:href="#S"/></g><path d="M30 0v-248h187v28H63v79h144v27H63v87h162V0H30" id="Z"/><g id="i"><use transform="matrix(0.05,0,0,0.05,0,0)" xlink:href="#Z"/><use transform="matrix(0.05,0,0,0.05,12,0)" xlink:href="#C"/><use transform="matrix(0.05,0,0,0.05,22,0)" xlink:href="#D"/><use transform="matrix(0.05,0,0,0.05,31,0)" xlink:href="#L"/><use transform="matrix(0.05,0,0,0.05,41,0)" xlink:href="#M"/><use transform="matrix(0.05,0,0,0.05,51,0)" xlink:href="#C"/><use transform="matrix(0.05,0,0,0.05,61,0)" xlink:href="#P"/><use transform="matrix(0.05,0,0,0.05,66,0)" xlink:href="#A"/><use transform="matrix(0.05,0,0,0.05,76,0)" xlink:href="#z"/><use transform="matrix(0.05,0,0,0.05,80.95,0)" xlink:href="#S"/></g><path d="M143 4C61 4 22-44 18-125c-5-107 100-154 193-111 17 8 29 25 37 43l-32 9c-13-25-37-40-76-40-61 0-88 39-88 99 0 61 29 100 91 101 35 0 62-11 79-27v-45h-74v-28h105v86C228-13 192 4 143 4" id="aa"/><g id="j"><use transform="matrix(0.05,0,0,0.05,0,0)" xlink:href="#aa"/><use transform="matrix(0.05,0,0,0.05,14,0)" xlink:href="#L"/><use transform="matrix(0.05,0,0,0.05,24,0)" xlink:href="#G"/><use transform="matrix(0.05,0,0,0.05,34,0)" xlink:href="#I"/><use transform="matrix(0.05,0,0,0.05,37.95,0)" xlink:href="#S"/></g><path d="M63-220v92h138v28H63V0H30v-248h175v28H63" id="ab"/><path d="M179-190L93 31C79 59 56 82 12 73V49c39 6 53-20 64-50L1-190h34L92-34l54-156h33" id="ac"/><path d="M115-194c53 0 69 39 70 98 0 66-23 100-70 100C84 3 66-7 56-30L54 0H23l1-261h32v101c10-23 28-34 59-34zm-8 174c40 0 45-34 45-75 0-40-5-75-45-74-42 0-51 32-51 76 0 43 10 73 51 73" id="ad"/><path d="M197 0v-115H63V0H30v-248h33v105h134v-105h34V0h-34" id="ae"/><g id="k"><use transform="matrix(0.05,0,0,0.05,0,0)" xlink:href="#ab"/><use transform="matrix(0.05,0,0,0.05,10.950000000000001,0)" xlink:href="#G"/><use transform="matrix(0.05,0,0,0.05,20.950000000000003,0)" xlink:href="#R"/><use transform="matrix(0.05,0,0,0.05,35.900000000000006,0)" xlink:href="#O"/><use transform="matrix(0.05,0,0,0.05,39.85000000000001,0)" xlink:href="#I"/><use transform="matrix(0.05,0,0,0.05,43.80000000000001,0)" xlink:href="#ac"/><use transform="matrix(0.05,0,0,0.05,52.80000000000001,0)" xlink:href="#E"/><use transform="matrix(0.05,0,0,0.05,67.75000000000001,0)" xlink:href="#A"/><use transform="matrix(0.05,0,0,0.05,77.75000000000001,0)" xlink:href="#R"/><use transform="matrix(0.05,0,0,0.05,92.70000000000002,0)" xlink:href="#ad"/><use transform="matrix(0.05,0,0,0.05,102.7,0)" xlink:href="#A"/><use transform="matrix(0.05,0,0,0.05,112.7,0)" xlink:href="#z"/><use transform="matrix(0.05,0,0,0.05,118.65000000000003,0)" xlink:href="#ae"/><use transform="matrix(0.05,0,0,0.05,131.60000000000002,0)" xlink:href="#O"/><use transform="matrix(0.05,0,0,0.05,135.55,0)" xlink:href="#K"/><use transform="matrix(0.05,0,0,0.05,144.55,0)" xlink:href="#P"/><use transform="matrix(0.05,0,0,0.05,149.55,0)" xlink:href="#L"/><use transform="matrix(0.05,0,0,0.05,159.55,0)" xlink:href="#z"/><use transform="matrix(0.05,0,0,0.05,165.5,0)" xlink:href="#ac"/><use transform="matrix(0.05,0,0,0.05,173.15,0)" xlink:href="#S"/></g><path d="M33 0v-38h34V0H33" id="af"/><g id="l"><use transform="matrix(0.05,0,0,0.05,0,0)" xlink:href="#A"/><use transform="matrix(0.05,0,0,0.05,10,0)" xlink:href="#P"/><use transform="matrix(0.05,0,0,0.05,15,0)" xlink:href="#D"/><use transform="matrix(0.05,0,0,0.05,24,0)" xlink:href="#af"/><use transform="matrix(0.05,0,0,0.05,29,0)" xlink:href="#af"/><use transform="matrix(0.05,0,0,0.05,34,0)" xlink:href="#af"/></g><g id="m"><use transform="matrix(0.05,0,0,0.05,0,0)" xlink:href="#F"/><use transform="matrix(0.05,0,0,0.05,12.950000000000001,0)" xlink:href="#G"/><use transform="matrix(0.05,0,0,0.05,22.950000000000003,0)" xlink:href="#z"/><use transform="matrix(0.05,0,0,0.05,28.900000000000002,0)" xlink:href="#A"/><use transform="matrix(0.05,0,0,0.05,38.900000000000006,0)" xlink:href="#H"/><use transform="matrix(0.05,0,0,0.05,50.900000000000006,0)" xlink:href="#I"/><use transform="matrix(0.05,0,0,0.05,54.85,0)" xlink:href="#G"/><use transform="matrix(0.05,0,0,0.05,64.85000000000001,0)" xlink:href="#C"/></g><path d="M-5 72V49h209v23H-5" id="ag"/><g id="n"><use transform="matrix(0.05,0,0,0.05,0,0)" xlink:href="#ag"/><use transform="matrix(0.05,0,0,0.05,10,0)" xlink:href="#O"/><use transform="matrix(0.05,0,0,0.05,13.949999999999998,0)" xlink:href="#C"/><use transform="matrix(0.05,0,0,0.05,23.95,0)" xlink:href="#D"/><use transform="matrix(0.05,0,0,0.05,32.95,0)" xlink:href="#I"/><use transform="matrix(0.05,0,0,0.05,36.900000000000006,0)" xlink:href="#M"/><use transform="matrix(0.05,0,0,0.05,46.900000000000006,0)" xlink:href="#N"/><use transform="matrix(0.05,0,0,0.05,56.900000000000006,0)" xlink:href="#A"/></g><g id="o"><use transform="matrix(0.05,0,0,0.05,0,0)" xlink:href="#G"/><use transform="matrix(0.05,0,0,0.05,10,0)" xlink:href="#D"/><use transform="matrix(0.05,0,0,0.05,19,0)" xlink:href="#D"/><use transform="matrix(0.05,0,0,0.05,28,0)" xlink:href="#A"/><use transform="matrix(0.05,0,0,0.05,38,0)" xlink:href="#K"/><use transform="matrix(0.05,0,0,0.05,47,0)" xlink:href="#K"/><use transform="matrix(0.05,0,0,0.05,56,0)" xlink:href="#O"/><use transform="matrix(0.05,0,0,0.05,59.95,0)" xlink:href="#ad"/><use transform="matrix(0.05,0,0,0.05,69.95,0)" xlink:href="#I"/><use transform="matrix(0.05,0,0,0.05,73.9,0)" xlink:href="#A"/></g><g id="p"><use transform="matrix(0.05,0,0,0.05,0,0)" xlink:href="#z"/><use transform="matrix(0.05,0,0,0.05,5.95,0)" xlink:href="#A"/><use transform="matrix(0.05,0,0,0.05,15.949999999999998,0)" xlink:href="#B"/><use transform="matrix(0.05,0,0,0.05,20.95,0)" xlink:href="#A"/><use transform="matrix(0.05,0,0,0.05,30.950000000000003,0)" xlink:href="#z"/><use transform="matrix(0.05,0,0,0.05,36.9,0)" xlink:href="#A"/><use transform="matrix(0.05,0,0,0.05,46.9,0)" xlink:href="#C"/><use transform="matrix(0.05,0,0,0.05,56.900000000000006,0)" xlink:href="#D"/><use transform="matrix(0.05,0,0,0.05,65.9,0)" xlink:href="#A"/><use transform="matrix(0.05,0,0,0.05,75.9,0)" xlink:href="#N"/></g><g id="q"><use transform="matrix(0.05,0,0,0.05,0,0)" xlink:href="#z"/><use transform="matrix(0.05,0,0,0.05,5.95,0)" xlink:href="#A"/><use transform="matrix(0.05,0,0,0.05,15.949999999999998,0)" xlink:href="#K"/><use transform="matrix(0.05,0,0,0.05,24.95,0)" xlink:href="#L"/><use transform="matrix(0.05,0,0,0.05,34.95,0)" xlink:href="#M"/><use transform="matrix(0.05,0,0,0.05,44.95,0)" xlink:href="#z"/><use transform="matrix(0.05,0,0,0.05,50.900000000000006,0)" xlink:href="#D"/><use transform="matrix(0.05,0,0,0.05,59.900000000000006,0)" xlink:href="#A"/><use transform="matrix(0.05,0,0,0.05,69.9,0)" xlink:href="#K"/></g><g id="r"><use transform="matrix(0.05,0,0,0.05,0,0)" xlink:href="#F"/><use transform="matrix(0.05,0,0,0.05,12.950000000000001,0)" xlink:href="#L"/><use transform="matrix(0.05,0,0,0.05,22.950000000000003,0)" xlink:href="#C"/><use transform="matrix(0.05,0,0,0.05,32.95,0)" xlink:href="#N"/><use transform="matrix(0.05,0,0,0.05,42.95,0)" xlink:href="#O"/><use transform="matrix(0.05,0,0,0.05,46.900000000000006,0)" xlink:href="#P"/><use transform="matrix(0.05,0,0,0.05,51.900000000000006,0)" xlink:href="#O"/><use transform="matrix(0.05,0,0,0.05,55.85,0)" xlink:href="#L"/><use transform="matrix(0.05,0,0,0.05,65.85000000000001,0)" xlink:href="#C"/></g><g id="s"><use transform="matrix(0.05,0,0,0.05,0,0)" xlink:href="#ag"/><use transform="matrix(0.05,0,0,0.05,10,0)" xlink:href="#z"/><use transform="matrix(0.05,0,0,0.05,15.949999999999998,0)" xlink:href="#A"/><use transform="matrix(0.05,0,0,0.05,25.950000000000003,0)" xlink:href="#W"/><use transform="matrix(0.05,0,0,0.05,34.95,0)" xlink:href="#T"/><use transform="matrix(0.05,0,0,0.05,39.95,0)" xlink:href="#C"/><use transform="matrix(0.05,0,0,0.05,49.95,0)" xlink:href="#D"/><use transform="matrix(0.05,0,0,0.05,58.95,0)" xlink:href="#I"/><use transform="matrix(0.05,0,0,0.05,62.900000000000006,0)" xlink:href="#M"/><use transform="matrix(0.05,0,0,0.05,72.9,0)" xlink:href="#N"/><use transform="matrix(0.05,0,0,0.05,82.9,0)" xlink:href="#A"/></g><g id="t"><use transform="matrix(0.05,0,0,0.05,0,0)" xlink:href="#G"/><use transform="matrix(0.05,0,0,0.05,10,0)" xlink:href="#D"/><use transform="matrix(0.05,0,0,0.05,19,0)" xlink:href="#D"/><use transform="matrix(0.05,0,0,0.05,28,0)" xlink:href="#A"/><use transform="matrix(0.05,0,0,0.05,38,0)" xlink:href="#K"/><use transform="matrix(0.05,0,0,0.05,47,0)" xlink:href="#O"/><use transform="matrix(0.05,0,0,0.05,50.95,0)" xlink:href="#ad"/><use transform="matrix(0.05,0,0,0.05,60.95,0)" xlink:href="#I"/><use transform="matrix(0.05,0,0,0.05,64.9,0)" xlink:href="#A"/></g><g id="u"><use transform="matrix(0.05,0,0,0.05,0,0)" xlink:href="#z"/><use transform="matrix(0.05,0,0,0.05,5.95,0)" xlink:href="#A"/><use transform="matrix(0.05,0,0,0.05,15.949999999999998,0)" xlink:href="#K"/><use transform="matrix(0.05,0,0,0.05,24.95,0)" xlink:href="#L"/><use transform="matrix(0.05,0,0,0.05,34.95,0)" xlink:href="#M"/><use transform="matrix(0.05,0,0,0.05,44.95,0)" xlink:href="#z"/><use transform="matrix(0.05,0,0,0.05,50.900000000000006,0)" xlink:href="#D"/><use transform="matrix(0.05,0,0,0.05,59.900000000000006,0)" xlink:href="#A"/><use transform="matrix(0.05,0,0,0.05,69.9,0)" xlink:href="#K"/></g><path d="M106-169C34-169 62-67 57 0H25v-261h32l-1 103c12-21 28-36 61-36 89 0 53 116 60 194h-32v-121c2-32-8-49-39-48" id="ah"/><g id="v"><use transform="matrix(0.05,0,0,0.05,0,0)" xlink:href="#P"/><use transform="matrix(0.05,0,0,0.05,5,0)" xlink:href="#ah"/><use transform="matrix(0.05,0,0,0.05,15,0)" xlink:href="#G"/><use transform="matrix(0.05,0,0,0.05,25,0)" xlink:href="#P"/></g><g id="w"><use transform="matrix(0.05,0,0,0.05,0,0)" xlink:href="#z"/><use transform="matrix(0.05,0,0,0.05,5.95,0)" xlink:href="#A"/><use transform="matrix(0.05,0,0,0.05,15.949999999999998,0)" xlink:href="#B"/><use transform="matrix(0.05,0,0,0.05,20.95,0)" xlink:href="#A"/><use transform="matrix(0.05,0,0,0.05,30.950000000000003,0)" xlink:href="#z"/><use transform="matrix(0.05,0,0,0.05,36.9,0)" xlink:href="#A"/><use transform="matrix(0.05,0,0,0.05,46.9,0)" xlink:href="#C"/><use transform="matrix(0.05,0,0,0.05,56.900000000000006,0)" xlink:href="#D"/><use transform="matrix(0.05,0,0,0.05,65.9,0)" xlink:href="#A"/></g><g id="x"><use transform="matrix(0.05,0,0,0.05,0,0)" xlink:href="#F"/><use transform="matrix(0.05,0,0,0.05,12.950000000000001,0)" xlink:href="#L"/><use transform="matrix(0.05,0,0,0.05,22.950000000000003,0)" xlink:href="#C"/><use transform="matrix(0.05,0,0,0.05,32.95,0)" xlink:href="#N"/><use transform="matrix(0.05,0,0,0.05,42.95,0)" xlink:href="#O"/><use transform="matrix(0.05,0,0,0.05,46.900000000000006,0)" xlink:href="#P"/><use transform="matrix(0.05,0,0,0.05,51.900000000000006,0)" xlink:href="#O"/><use transform="matrix(0.05,0,0,0.05,55.85,0)" xlink:href="#L"/><use transform="matrix(0.05,0,0,0.05,65.85000000000001,0)" xlink:href="#C"/></g><g id="y"><use transform="matrix(0.05,0,0,0.05,0,0)" xlink:href="#F"/><use transform="matrix(0.05,0,0,0.05,12.950000000000001,0)" xlink:href="#G"/><use transform="matrix(0.05,0,0,0.05,22.950000000000003,0)" xlink:href="#z"/><use transform="matrix(0.05,0,0,0.05,28.900000000000002,0)" xlink:href="#A"/><use transform="matrix(0.05,0,0,0.05,38.900000000000006,0)" xlink:href="#H"/><use transform="matrix(0.05,0,0,0.05,50.900000000000006,0)" xlink:href="#I"/><use transform="matrix(0.05,0,0,0.05,54.85,0)" xlink:href="#G"/><use transform="matrix(0.05,0,0,0.05,64.85000000000001,0)" xlink:href="#C"/><use transform="matrix(0.05,0,0,0.05,74.85000000000001,0)" xlink:href="#af"/><use transform="matrix(0.05,0,0,0.05,79.85000000000001,0)" xlink:href="#G"/><use transform="matrix(0.05,0,0,0.05,89.85000000000001,0)" xlink:href="#N"/><use transform="matrix(0.05,0,0,0.05,99.85000000000001,0)" xlink:href="#N"/><use transform="matrix(0.05,0,0,0.05,109.85000000000001,0)" xlink:href="#z"/><use transform="matrix(0.05,0,0,0.05,115.80000000000001,0)" xlink:href="#A"/><use transform="matrix(0.05,0,0,0.05,125.80000000000001,0)" xlink:href="#K"/><use transform="matrix(0.05,0,0,0.05,134.8,0)" xlink:href="#K"/><use transform="matrix(0.05,0,0,0.05,143.8,0)" xlink:href="#A"/><use transform="matrix(0.05,0,0,0.05,153.8,0)" xlink:href="#K"/></g></defs></g></svg>