<svg xmlns="http://www.w3.org/2000/svg" xmlns:xlink="http://www.w3.org/1999/xlink" xmlns:lucid="lucid" width="840" height="382"><g transform="translate(-840 -859)" lucid:page-tab-id="Kjb-Y4FDx7pE"><path d="M0 0h1760v1360H0z" fill="#fff"/><path d="M1180 1058.73h94.67v52.67H1180z" fill="none"/><use xlink:href="#a" transform="matrix(1,0,0,1,1180,1058.7333333333338) translate(9.549999999999997 30.1)"/><path d="M1020 860h280v40h-280z" stroke="#000" stroke-width="2" fill="#c7e8ac"/><use xlink:href="#b" transform="matrix(1,0,0,1,1032,872) translate(26.69999999999999 14.4)"/><use xlink:href="#c" transform="matrix(1,0,0,1,1032,872) translate(72.54999999999998 14.4)"/><use xlink:href="#d" transform="matrix(1,0,0,1,1032,872) translate(152.4 14.4)"/><path d="M1020 1000h280v40h-280z" stroke="#000" stroke-width="2" fill="#c7e8ac"/><use xlink:href="#e" transform="matrix(1,0,0,1,1032,1012) translate(86.55 14.4)"/><path d="M1020 1120h280v120h-280z" stroke="#000" stroke-width="2" fill="#c7e8ac"/><use xlink:href="#f" transform="matrix(1,0,0,1,1032,1132) translate(31.57499999999999 41.4)"/><use xlink:href="#g" transform="matrix(1,0,0,1,1032,1132) translate(122.52499999999999 41.4)"/><use xlink:href="#h" transform="matrix(1,0,0,1,1032,1132) translate(7.099999999999994 63)"/><use xlink:href="#i" transform="matrix(1,0,0,1,1032,1132) translate(209.9 63)"/><path d="M1160 1118v-58.5" stroke="#000" stroke-width="2" fill="none"/><path d="M1161 1119h-2v-1.03h2z" stroke="#000" stroke-width=".05"/><path d="M1160 1044.24l4.64 14.26h-9.28z" stroke="#000" stroke-width="2"/><path d="M1160 998v-78.5" stroke="#000" stroke-width="2" fill="none"/><path d="M1161 999h-2v-1.03h2z" stroke="#000" stroke-width=".05"/><path d="M1160 904.24l4.64 14.26h-9.28z" stroke="#000" stroke-width="2"/><path d="M1380 878.67h240V1004h-240z" fill="none"/><path d="M1380 1004c5.52 0 10-4.48 10-10v-42.67c0-5.52 4.48-10 10-10-5.52 0-10-4.47-10-10v-42.66c0-5.53-4.48-10-10-10" stroke="#000" stroke-width="2" fill="none"/><use xlink:href="#j" transform="matrix(1,0,0,1,1415,883.6666666666667) translate(0 40)"/><use xlink:href="#k" transform="matrix(1,0,0,1,1415,883.6666666666667) translate(79.85000000000001 40)"/><use xlink:href="#l" transform="matrix(1,0,0,1,1415,883.6666666666667) translate(0 61.6)"/><use xlink:href="#m" transform="matrix(1,0,0,1,1415,883.6666666666667) translate(88.9 61.6)"/><use xlink:href="#n" transform="matrix(1,0,0,1,1415,883.6666666666667) translate(0 83.20000000000002)"/><path d="M1380 1040h300v145.33h-300z" fill="none"/><path d="M1380 1185.33c5.52 0 10-4.47 10-10v-52.66c0-5.53 4.48-10 10-10-5.52 0-10-4.48-10-10V1050c0-5.52-4.48-10-10-10" stroke="#000" stroke-width="2" fill="none"/><g><use xlink:href="#o" transform="matrix(1,0,0,1,1415,1044.9999999999998) translate(0 50)"/><use xlink:href="#p" transform="matrix(1,0,0,1,1415,1044.9999999999998) translate(87.9 50)"/><use xlink:href="#q" transform="matrix(1,0,0,1,1415,1044.9999999999998) translate(0 71.60000000000001)"/><use xlink:href="#r" transform="matrix(1,0,0,1,1415,1044.9999999999998) translate(79.9 71.60000000000001)"/><use xlink:href="#s" transform="matrix(1,0,0,1,1415,1044.9999999999998) translate(163.8 71.60000000000001)"/><use xlink:href="#t" transform="matrix(1,0,0,1,1415,1044.9999999999998) translate(0 93.20000000000002)"/><use xlink:href="#u" transform="matrix(1,0,0,1,1415,1044.9999999999998) translate(80.9 93.20000000000002)"/></g><path d="M840 940h180v25.8H840z" fill="#fff" fill-opacity="0"/><g><use xlink:href="#v" transform="matrix(1,0,0,1,845,945) translate(0 14.4)"/></g><defs><path d="M114-163C36-179 61-72 57 0H25l-1-190h30c1 12-1 29 2 39 6-27 23-49 58-41v29" id="w"/><path d="M100-194c63 0 86 42 84 106H49c0 40 14 67 53 68 26 1 43-12 49-29l28 8c-11 28-37 45-77 45C44 4 14-33 15-96c1-61 26-98 85-98zm52 81c6-60-76-77-97-28-3 7-6 17-6 28h103" id="x"/><path d="M101-234c-31-9-42 10-38 44h38v23H63V0H32v-167H5v-23h27c-7-52 17-82 69-68v24" id="y"/><path d="M117-194c89-4 53 116 60 194h-32v-121c0-31-8-49-39-48C34-167 62-67 57 0H25l-1-190h30c1 10-1 24 2 32 11-22 29-35 61-36" id="z"/><path d="M96-169c-40 0-48 33-48 73s9 75 48 75c24 0 41-14 43-38l32 2c-6 37-31 61-74 61-59 0-76-41-82-99-10-93 101-131 147-64 4 7 5 14 7 22l-32 3c-4-21-16-35-41-35" id="A"/><g id="a"><use transform="matrix(0.05,0,0,0.05,0,0)" xlink:href="#w"/><use transform="matrix(0.05,0,0,0.05,5.95,0)" xlink:href="#x"/><use transform="matrix(0.05,0,0,0.05,15.949999999999998,0)" xlink:href="#y"/><use transform="matrix(0.05,0,0,0.05,20.95,0)" xlink:href="#x"/><use transform="matrix(0.05,0,0,0.05,30.950000000000003,0)" xlink:href="#w"/><use transform="matrix(0.05,0,0,0.05,36.9,0)" xlink:href="#x"/><use transform="matrix(0.05,0,0,0.05,46.9,0)" xlink:href="#z"/><use transform="matrix(0.05,0,0,0.05,56.900000000000006,0)" xlink:href="#A"/><use transform="matrix(0.05,0,0,0.05,65.9,0)" xlink:href="#x"/></g><path d="M240 0l2-218c-23 76-54 145-80 218h-23L58-218 59 0H30v-248h44l77 211c21-75 51-140 76-211h43V0h-30" id="B"/><path d="M212-179c-10-28-35-45-73-45-59 0-87 40-87 99 0 60 29 101 89 101 43 0 62-24 78-52l27 14C228-24 195 4 139 4 59 4 22-46 18-125c-6-104 99-153 187-111 19 9 31 26 39 46" id="C"/><g id="b"><use transform="matrix(0.05,0,0,0.05,0,0)" xlink:href="#B"/><use transform="matrix(0.05,0,0,0.05,14.950000000000001,0)" xlink:href="#C"/><use transform="matrix(0.05,0,0,0.05,27.900000000000002,0)" xlink:href="#C"/></g><path d="M141-36C126-15 110 5 73 4 37 3 15-17 15-53c-1-64 63-63 125-63 3-35-9-54-41-54-24 1-41 7-42 31l-33-3c5-37 33-52 76-52 45 0 72 20 72 64v82c-1 20 7 32 28 27v20c-31 9-61-2-59-35zM48-53c0 20 12 33 32 33 41-3 63-29 60-74-43 2-92-5-92 41" id="D"/><path d="M30-248c87 1 191-15 191 75 0 78-77 80-158 76V0H30v-248zm33 125c57 0 124 11 124-50 0-59-68-47-124-48v98" id="E"/><path d="M24 0v-261h32V0H24" id="F"/><g id="c"><use transform="matrix(0.05,0,0,0.05,0,0)" xlink:href="#C"/><use transform="matrix(0.05,0,0,0.05,12.950000000000001,0)" xlink:href="#D"/><use transform="matrix(0.05,0,0,0.05,22.950000000000003,0)" xlink:href="#w"/><use transform="matrix(0.05,0,0,0.05,28.900000000000002,0)" xlink:href="#x"/><use transform="matrix(0.05,0,0,0.05,38.900000000000006,0)" xlink:href="#E"/><use transform="matrix(0.05,0,0,0.05,50.900000000000006,0)" xlink:href="#F"/><use transform="matrix(0.05,0,0,0.05,54.85,0)" xlink:href="#D"/><use transform="matrix(0.05,0,0,0.05,64.85000000000001,0)" xlink:href="#z"/></g><path d="M233-177c-1 41-23 64-60 70L243 0h-38l-65-103H63V0H30v-248c88 3 205-21 203 71zM63-129c60-2 137 13 137-47 0-61-80-42-137-45v92" id="G"/><path d="M135-143c-3-34-86-38-87 0 15 53 115 12 119 90S17 21 10-45l28-5c4 36 97 45 98 0-10-56-113-15-118-90-4-57 82-63 122-42 12 7 21 19 24 35" id="H"/><path d="M100-194c62-1 85 37 85 99 1 63-27 99-86 99S16-35 15-95c0-66 28-99 85-99zM99-20c44 1 53-31 53-75 0-43-8-75-51-75s-53 32-53 75 10 74 51 75" id="I"/><path d="M84 4C-5 8 30-112 23-190h32v120c0 31 7 50 39 49 72-2 45-101 50-169h31l1 190h-30c-1-10 1-25-2-33-11 22-28 36-60 37" id="J"/><g id="d"><use transform="matrix(0.05,0,0,0.05,0,0)" xlink:href="#G"/><use transform="matrix(0.05,0,0,0.05,12.950000000000001,0)" xlink:href="#x"/><use transform="matrix(0.05,0,0,0.05,22.950000000000003,0)" xlink:href="#H"/><use transform="matrix(0.05,0,0,0.05,31.950000000000003,0)" xlink:href="#I"/><use transform="matrix(0.05,0,0,0.05,41.95,0)" xlink:href="#J"/><use transform="matrix(0.05,0,0,0.05,51.95,0)" xlink:href="#w"/><use transform="matrix(0.05,0,0,0.05,57.900000000000006,0)" xlink:href="#A"/><use transform="matrix(0.05,0,0,0.05,66.9,0)" xlink:href="#x"/></g><path d="M85-194c31 0 48 13 60 33l-1-100h32l1 261h-30c-2-10 0-23-3-31C134-8 116 4 85 4 32 4 16-35 15-94c0-66 23-100 70-100zm9 24c-40 0-46 34-46 75 0 40 6 74 45 74 42 0 51-32 51-76 0-42-9-74-50-73" id="K"/><g id="e"><use transform="matrix(0.05,0,0,0.05,0,0)" xlink:href="#E"/><use transform="matrix(0.05,0,0,0.05,12,0)" xlink:href="#w"/><use transform="matrix(0.05,0,0,0.05,17.95,0)" xlink:href="#I"/><use transform="matrix(0.05,0,0,0.05,27.950000000000003,0)" xlink:href="#A"/><use transform="matrix(0.05,0,0,0.05,36.95,0)" xlink:href="#x"/><use transform="matrix(0.05,0,0,0.05,46.95,0)" xlink:href="#K"/><use transform="matrix(0.05,0,0,0.05,56.95,0)" xlink:href="#J"/><use transform="matrix(0.05,0,0,0.05,66.95,0)" xlink:href="#w"/><use transform="matrix(0.05,0,0,0.05,72.9,0)" xlink:href="#x"/></g><path d="M30 0v-248h187v28H63v79h144v27H63v87h162V0H30" id="L"/><path d="M59-47c-2 24 18 29 38 22v24C64 9 27 4 27-40v-127H5v-23h24l9-43h21v43h35v23H59v120" id="M"/><path d="M68-38c1 34 0 65-14 84H32c9-13 17-26 17-46H33v-38h35" id="N"/><g id="f"><use transform="matrix(0.05,0,0,0.05,0,0)" xlink:href="#L"/><use transform="matrix(0.05,0,0,0.05,12,0)" xlink:href="#z"/><use transform="matrix(0.05,0,0,0.05,22,0)" xlink:href="#A"/><use transform="matrix(0.05,0,0,0.05,31,0)" xlink:href="#I"/><use transform="matrix(0.05,0,0,0.05,41,0)" xlink:href="#J"/><use transform="matrix(0.05,0,0,0.05,51,0)" xlink:href="#z"/><use transform="matrix(0.05,0,0,0.05,61,0)" xlink:href="#M"/><use transform="matrix(0.05,0,0,0.05,66,0)" xlink:href="#x"/><use transform="matrix(0.05,0,0,0.05,76,0)" xlink:href="#w"/><use transform="matrix(0.05,0,0,0.05,80.95,0)" xlink:href="#N"/></g><path d="M140-251c81 0 123 46 123 126C263-46 219 4 140 4 59 4 17-45 17-125s42-126 123-126zm0 227c63 0 89-41 89-101s-29-99-89-99c-61 0-89 39-89 99S79-25 140-24" id="O"/><path d="M115-194c53 0 69 39 70 98 0 66-23 100-70 100C84 3 66-7 56-30L54 0H23l1-261h32v101c10-23 28-34 59-34zm-8 174c40 0 45-34 45-75 0-40-5-75-45-74-42 0-51 32-51 76 0 43 10 73 51 73" id="P"/><path d="M108 0H70L1-190h34L89-25l56-165h34" id="Q"/><path d="M24-231v-30h32v30H24zM24 0v-190h32V0H24" id="R"/><g id="g"><use transform="matrix(0.05,0,0,0.05,0,0)" xlink:href="#O"/><use transform="matrix(0.05,0,0,0.05,14,0)" xlink:href="#P"/><use transform="matrix(0.05,0,0,0.05,24,0)" xlink:href="#H"/><use transform="matrix(0.05,0,0,0.05,33,0)" xlink:href="#x"/><use transform="matrix(0.05,0,0,0.05,43,0)" xlink:href="#w"/><use transform="matrix(0.05,0,0,0.05,48.95,0)" xlink:href="#Q"/><use transform="matrix(0.05,0,0,0.05,57.95,0)" xlink:href="#D"/><use transform="matrix(0.05,0,0,0.05,67.95,0)" xlink:href="#M"/><use transform="matrix(0.05,0,0,0.05,72.95,0)" xlink:href="#R"/><use transform="matrix(0.05,0,0,0.05,76.9,0)" xlink:href="#I"/><use transform="matrix(0.05,0,0,0.05,86.9,0)" xlink:href="#z"/><use transform="matrix(0.05,0,0,0.05,96.9,0)" xlink:href="#N"/></g><path d="M140-251c81 0 123 46 123 126C263-53 228-8 163 1c7 30 30 48 69 40v23c-55 16-95-15-103-61C56-3 17-48 17-125c0-80 42-126 123-126zm0 227c63 0 89-41 89-101s-29-99-89-99c-61 0-89 39-89 99S79-25 140-24" id="S"/><path d="M115-194c55 1 70 41 70 98S169 2 115 4C84 4 66-9 55-30l1 105H24l-1-265h31l2 30c10-21 28-34 59-34zm-8 174c40 0 45-34 45-75s-6-73-45-74c-42 0-51 32-51 76 0 43 10 73 51 73" id="T"/><g id="h"><use transform="matrix(0.05,0,0,0.05,0,0)" xlink:href="#S"/><use transform="matrix(0.05,0,0,0.05,14,0)" xlink:href="#J"/><use transform="matrix(0.05,0,0,0.05,24,0)" xlink:href="#x"/><use transform="matrix(0.05,0,0,0.05,34,0)" xlink:href="#H"/><use transform="matrix(0.05,0,0,0.05,43,0)" xlink:href="#M"/><use transform="matrix(0.05,0,0,0.05,48,0)" xlink:href="#R"/><use transform="matrix(0.05,0,0,0.05,51.95,0)" xlink:href="#I"/><use transform="matrix(0.05,0,0,0.05,61.95,0)" xlink:href="#z"/><use transform="matrix(0.05,0,0,0.05,71.95,0)" xlink:href="#z"/><use transform="matrix(0.05,0,0,0.05,81.95,0)" xlink:href="#D"/><use transform="matrix(0.05,0,0,0.05,91.95,0)" xlink:href="#R"/><use transform="matrix(0.05,0,0,0.05,95.9,0)" xlink:href="#w"/><use transform="matrix(0.05,0,0,0.05,101.85000000000001,0)" xlink:href="#x"/><use transform="matrix(0.05,0,0,0.05,111.85000000000001,0)" xlink:href="#G"/><use transform="matrix(0.05,0,0,0.05,124.80000000000001,0)" xlink:href="#x"/><use transform="matrix(0.05,0,0,0.05,134.8,0)" xlink:href="#H"/><use transform="matrix(0.05,0,0,0.05,143.8,0)" xlink:href="#T"/><use transform="matrix(0.05,0,0,0.05,153.8,0)" xlink:href="#I"/><use transform="matrix(0.05,0,0,0.05,163.8,0)" xlink:href="#z"/><use transform="matrix(0.05,0,0,0.05,173.8,0)" xlink:href="#H"/><use transform="matrix(0.05,0,0,0.05,182.8,0)" xlink:href="#x"/><use transform="matrix(0.05,0,0,0.05,192.8,0)" xlink:href="#N"/></g><path d="M33 0v-38h34V0H33" id="U"/><g id="i"><use transform="matrix(0.05,0,0,0.05,0,0)" xlink:href="#x"/><use transform="matrix(0.05,0,0,0.05,10,0)" xlink:href="#M"/><use transform="matrix(0.05,0,0,0.05,15,0)" xlink:href="#A"/><use transform="matrix(0.05,0,0,0.05,24,0)" xlink:href="#U"/><use transform="matrix(0.05,0,0,0.05,29,0)" xlink:href="#U"/><use transform="matrix(0.05,0,0,0.05,34,0)" xlink:href="#U"/></g><g id="j"><use transform="matrix(0.05,0,0,0.05,0,0)" xlink:href="#C"/><use transform="matrix(0.05,0,0,0.05,12.950000000000001,0)" xlink:href="#D"/><use transform="matrix(0.05,0,0,0.05,22.950000000000003,0)" xlink:href="#w"/><use transform="matrix(0.05,0,0,0.05,28.900000000000002,0)" xlink:href="#x"/><use transform="matrix(0.05,0,0,0.05,38.900000000000006,0)" xlink:href="#E"/><use transform="matrix(0.05,0,0,0.05,50.900000000000006,0)" xlink:href="#F"/><use transform="matrix(0.05,0,0,0.05,54.85,0)" xlink:href="#D"/><use transform="matrix(0.05,0,0,0.05,64.85000000000001,0)" xlink:href="#z"/></g><path d="M-5 72V49h209v23H-5" id="V"/><g id="k"><use transform="matrix(0.05,0,0,0.05,0,0)" xlink:href="#V"/><use transform="matrix(0.05,0,0,0.05,10,0)" xlink:href="#R"/><use transform="matrix(0.05,0,0,0.05,13.949999999999998,0)" xlink:href="#z"/><use transform="matrix(0.05,0,0,0.05,23.95,0)" xlink:href="#A"/><use transform="matrix(0.05,0,0,0.05,32.95,0)" xlink:href="#F"/><use transform="matrix(0.05,0,0,0.05,36.900000000000006,0)" xlink:href="#J"/><use transform="matrix(0.05,0,0,0.05,46.900000000000006,0)" xlink:href="#K"/><use transform="matrix(0.05,0,0,0.05,56.900000000000006,0)" xlink:href="#x"/></g><g id="l"><use transform="matrix(0.05,0,0,0.05,0,0)" xlink:href="#D"/><use transform="matrix(0.05,0,0,0.05,10,0)" xlink:href="#A"/><use transform="matrix(0.05,0,0,0.05,19,0)" xlink:href="#A"/><use transform="matrix(0.05,0,0,0.05,28,0)" xlink:href="#x"/><use transform="matrix(0.05,0,0,0.05,38,0)" xlink:href="#H"/><use transform="matrix(0.05,0,0,0.05,47,0)" xlink:href="#H"/><use transform="matrix(0.05,0,0,0.05,56,0)" xlink:href="#R"/><use transform="matrix(0.05,0,0,0.05,59.95,0)" xlink:href="#P"/><use transform="matrix(0.05,0,0,0.05,69.95,0)" xlink:href="#F"/><use transform="matrix(0.05,0,0,0.05,73.9,0)" xlink:href="#x"/></g><g id="m"><use transform="matrix(0.05,0,0,0.05,0,0)" xlink:href="#w"/><use transform="matrix(0.05,0,0,0.05,5.95,0)" xlink:href="#x"/><use transform="matrix(0.05,0,0,0.05,15.949999999999998,0)" xlink:href="#y"/><use transform="matrix(0.05,0,0,0.05,20.95,0)" xlink:href="#x"/><use transform="matrix(0.05,0,0,0.05,30.950000000000003,0)" xlink:href="#w"/><use transform="matrix(0.05,0,0,0.05,36.9,0)" xlink:href="#x"/><use transform="matrix(0.05,0,0,0.05,46.9,0)" xlink:href="#z"/><use transform="matrix(0.05,0,0,0.05,56.900000000000006,0)" xlink:href="#A"/><use transform="matrix(0.05,0,0,0.05,65.9,0)" xlink:href="#x"/><use transform="matrix(0.05,0,0,0.05,75.9,0)" xlink:href="#K"/></g><g id="n"><use transform="matrix(0.05,0,0,0.05,0,0)" xlink:href="#w"/><use transform="matrix(0.05,0,0,0.05,5.95,0)" xlink:href="#x"/><use transform="matrix(0.05,0,0,0.05,15.949999999999998,0)" xlink:href="#H"/><use transform="matrix(0.05,0,0,0.05,24.95,0)" xlink:href="#I"/><use transform="matrix(0.05,0,0,0.05,34.95,0)" xlink:href="#J"/><use transform="matrix(0.05,0,0,0.05,44.95,0)" xlink:href="#w"/><use transform="matrix(0.05,0,0,0.05,50.900000000000006,0)" xlink:href="#A"/><use transform="matrix(0.05,0,0,0.05,59.900000000000006,0)" xlink:href="#x"/><use transform="matrix(0.05,0,0,0.05,69.9,0)" xlink:href="#H"/></g><g id="o"><use transform="matrix(0.05,0,0,0.05,0,0)" xlink:href="#E"/><use transform="matrix(0.05,0,0,0.05,12,0)" xlink:href="#w"/><use transform="matrix(0.05,0,0,0.05,17.95,0)" xlink:href="#I"/><use transform="matrix(0.05,0,0,0.05,27.950000000000003,0)" xlink:href="#A"/><use transform="matrix(0.05,0,0,0.05,36.95,0)" xlink:href="#x"/><use transform="matrix(0.05,0,0,0.05,46.95,0)" xlink:href="#K"/><use transform="matrix(0.05,0,0,0.05,56.95,0)" xlink:href="#J"/><use transform="matrix(0.05,0,0,0.05,66.95,0)" xlink:href="#w"/><use transform="matrix(0.05,0,0,0.05,72.9,0)" xlink:href="#x"/></g><path d="M33 0v-248h34V0H33" id="W"/><g id="p"><use transform="matrix(0.05,0,0,0.05,0,0)" xlink:href="#V"/><use transform="matrix(0.05,0,0,0.05,10,0)" xlink:href="#w"/><use transform="matrix(0.05,0,0,0.05,15.949999999999998,0)" xlink:href="#x"/><use transform="matrix(0.05,0,0,0.05,25.950000000000003,0)" xlink:href="#Q"/><use transform="matrix(0.05,0,0,0.05,34.95,0)" xlink:href="#W"/><use transform="matrix(0.05,0,0,0.05,39.95,0)" xlink:href="#z"/><use transform="matrix(0.05,0,0,0.05,49.95,0)" xlink:href="#A"/><use transform="matrix(0.05,0,0,0.05,58.95,0)" xlink:href="#F"/><use transform="matrix(0.05,0,0,0.05,62.900000000000006,0)" xlink:href="#J"/><use transform="matrix(0.05,0,0,0.05,72.9,0)" xlink:href="#K"/><use transform="matrix(0.05,0,0,0.05,82.9,0)" xlink:href="#x"/></g><g id="q"><use transform="matrix(0.05,0,0,0.05,0,0)" xlink:href="#D"/><use transform="matrix(0.05,0,0,0.05,10,0)" xlink:href="#A"/><use transform="matrix(0.05,0,0,0.05,19,0)" xlink:href="#A"/><use transform="matrix(0.05,0,0,0.05,28,0)" xlink:href="#x"/><use transform="matrix(0.05,0,0,0.05,38,0)" xlink:href="#H"/><use transform="matrix(0.05,0,0,0.05,47,0)" xlink:href="#R"/><use transform="matrix(0.05,0,0,0.05,50.95,0)" xlink:href="#P"/><use transform="matrix(0.05,0,0,0.05,60.95,0)" xlink:href="#F"/><use transform="matrix(0.05,0,0,0.05,64.9,0)" xlink:href="#x"/></g><g id="r"><use transform="matrix(0.05,0,0,0.05,0,0)" xlink:href="#w"/><use transform="matrix(0.05,0,0,0.05,5.95,0)" xlink:href="#x"/><use transform="matrix(0.05,0,0,0.05,15.949999999999998,0)" xlink:href="#H"/><use transform="matrix(0.05,0,0,0.05,24.95,0)" xlink:href="#I"/><use transform="matrix(0.05,0,0,0.05,34.95,0)" xlink:href="#J"/><use transform="matrix(0.05,0,0,0.05,44.95,0)" xlink:href="#w"/><use transform="matrix(0.05,0,0,0.05,50.900000000000006,0)" xlink:href="#A"/><use transform="matrix(0.05,0,0,0.05,59.900000000000006,0)" xlink:href="#x"/><use transform="matrix(0.05,0,0,0.05,69.9,0)" xlink:href="#H"/></g><path d="M106-169C34-169 62-67 57 0H25v-261h32l-1 103c12-21 28-36 61-36 89 0 53 116 60 194h-32v-121c2-32-8-49-39-48" id="X"/><g id="s"><use transform="matrix(0.05,0,0,0.05,0,0)" xlink:href="#M"/><use transform="matrix(0.05,0,0,0.05,5,0)" xlink:href="#X"/><use transform="matrix(0.05,0,0,0.05,15,0)" xlink:href="#D"/><use transform="matrix(0.05,0,0,0.05,25,0)" xlink:href="#M"/></g><g id="t"><use transform="matrix(0.05,0,0,0.05,0,0)" xlink:href="#w"/><use transform="matrix(0.05,0,0,0.05,5.95,0)" xlink:href="#x"/><use transform="matrix(0.05,0,0,0.05,15.949999999999998,0)" xlink:href="#y"/><use transform="matrix(0.05,0,0,0.05,20.95,0)" xlink:href="#x"/><use transform="matrix(0.05,0,0,0.05,30.950000000000003,0)" xlink:href="#w"/><use transform="matrix(0.05,0,0,0.05,36.9,0)" xlink:href="#x"/><use transform="matrix(0.05,0,0,0.05,46.9,0)" xlink:href="#z"/><use transform="matrix(0.05,0,0,0.05,56.900000000000006,0)" xlink:href="#A"/><use transform="matrix(0.05,0,0,0.05,65.9,0)" xlink:href="#x"/></g><g id="u"><use transform="matrix(0.05,0,0,0.05,0,0)" xlink:href="#E"/><use transform="matrix(0.05,0,0,0.05,12,0)" xlink:href="#w"/><use transform="matrix(0.05,0,0,0.05,17.95,0)" xlink:href="#I"/><use transform="matrix(0.05,0,0,0.05,27.950000000000003,0)" xlink:href="#A"/><use transform="matrix(0.05,0,0,0.05,36.95,0)" xlink:href="#x"/><use transform="matrix(0.05,0,0,0.05,46.95,0)" xlink:href="#K"/><use transform="matrix(0.05,0,0,0.05,56.95,0)" xlink:href="#J"/><use transform="matrix(0.05,0,0,0.05,66.95,0)" xlink:href="#w"/><use transform="matrix(0.05,0,0,0.05,72.9,0)" xlink:href="#x"/></g><path d="M179-190L93 31C79 59 56 82 12 73V49c39 6 53-20 64-50L1-190h34L92-34l54-156h33" id="Y"/><path d="M210-169c-67 3-38 105-44 169h-31v-121c0-29-5-50-35-48C34-165 62-65 56 0H25l-1-190h30c1 10-1 24 2 32 10-44 99-50 107 0 11-21 27-35 58-36 85-2 47 119 55 194h-31v-121c0-29-5-49-35-48" id="Z"/><g id="v"><use transform="matrix(0.05,0,0,0.05,0,0)" xlink:href="#C"/><use transform="matrix(0.05,0,0,0.05,12.950000000000001,0)" xlink:href="#D"/><use transform="matrix(0.05,0,0,0.05,22.950000000000003,0)" xlink:href="#w"/><use transform="matrix(0.05,0,0,0.05,28.900000000000002,0)" xlink:href="#x"/><use transform="matrix(0.05,0,0,0.05,38.900000000000006,0)" xlink:href="#E"/><use transform="matrix(0.05,0,0,0.05,50.900000000000006,0)" xlink:href="#F"/><use transform="matrix(0.05,0,0,0.05,54.85,0)" xlink:href="#D"/><use transform="matrix(0.05,0,0,0.05,64.85000000000001,0)" xlink:href="#z"/><use transform="matrix(0.05,0,0,0.05,74.85000000000001,0)" xlink:href="#U"/><use transform="matrix(0.05,0,0,0.05,79.85000000000001,0)" xlink:href="#D"/><use transform="matrix(0.05,0,0,0.05,89.85000000000001,0)" xlink:href="#A"/><use transform="matrix(0.05,0,0,0.05,98.85000000000001,0)" xlink:href="#M"/><use transform="matrix(0.05,0,0,0.05,103.85000000000001,0)" xlink:href="#R"/><use transform="matrix(0.05,0,0,0.05,107.80000000000001,0)" xlink:href="#Q"/><use transform="matrix(0.05,0,0,0.05,116.80000000000001,0)" xlink:href="#R"/><use transform="matrix(0.05,0,0,0.05,120.75,0)" xlink:href="#M"/><use transform="matrix(0.05,0,0,0.05,125.75,0)" xlink:href="#Y"/><use transform="matrix(0.05,0,0,0.05,133.40000000000003,0)" xlink:href="#U"/><use transform="matrix(0.05,0,0,0.05,138.40000000000003,0)" xlink:href="#I"/><use transform="matrix(0.05,0,0,0.05,148.40000000000003,0)" xlink:href="#J"/><use transform="matrix(0.05,0,0,0.05,158.40000000000003,0)" xlink:href="#M"/><use transform="matrix(0.05,0,0,0.05,163.40000000000003,0)" xlink:href="#A"/><use transform="matrix(0.05,0,0,0.05,172.40000000000003,0)" xlink:href="#I"/><use transform="matrix(0.05,0,0,0.05,182.40000000000003,0)" xlink:href="#Z"/><use transform="matrix(0.05,0,0,0.05,197.35000000000002,0)" xlink:href="#x"/><use transform="matrix(0.05,0,0,0.05,207.35000000000002,0)" xlink:href="#G"/><use transform="matrix(0.05,0,0,0.05,220.3,0)" xlink:href="#x"/><use transform="matrix(0.05,0,0,0.05,230.3,0)" xlink:href="#y"/><use transform="matrix(0.05,0,0,0.05,235.3,0)" xlink:href="#x"/><use transform="matrix(0.05,0,0,0.05,245.3,0)" xlink:href="#w"/><use transform="matrix(0.05,0,0,0.05,251.25,0)" xlink:href="#x"/><use transform="matrix(0.05,0,0,0.05,261.25,0)" xlink:href="#z"/><use transform="matrix(0.05,0,0,0.05,271.25,0)" xlink:href="#A"/><use transform="matrix(0.05,0,0,0.05,280.25,0)" xlink:href="#x"/></g></defs></g></svg>